<mxfile host="app.diagrams.net" modified="2024-02-04T16:12:19.145Z" agent="Mozilla/5.0 (Windows NT 10.0; Win64; x64) AppleWebKit/537.36 (KHTML, like Gecko) Chrome/121.0.0.0 Safari/537.36" etag="xkUce2KbbeRrBGiYy3CK" version="23.1.1" type="device">
  <diagram id="yPxyJZ8AM_hMuL3Unpa9" name="simple gitflow">
    <mxGraphModel dx="1221" dy="716" grid="1" gridSize="10" guides="1" tooltips="1" connect="1" arrows="1" fold="1" page="1" pageScale="1" pageWidth="1100" pageHeight="850" math="0" shadow="0">
      <root>
        <mxCell id="0" />
        <mxCell id="1" parent="0" />
        <mxCell id="9hBKPDzoitwpIBdzFDQ7-23" value="" style="edgeStyle=orthogonalEdgeStyle;rounded=0;html=1;jettySize=auto;orthogonalLoop=1;plain-blue;endArrow=none;endFill=0;strokeWidth=4;strokeColor=#000000;exitX=1;exitY=0.5;exitDx=0;exitDy=0;" parent="1" source="AVEdaVqTsH_PwXqT6mUa-4" target="9hBKPDzoitwpIBdzFDQ7-26" edge="1">
          <mxGeometry x="304.5" y="180" as="geometry" />
        </mxCell>
        <mxCell id="9hBKPDzoitwpIBdzFDQ7-24" style="edgeStyle=orthogonalEdgeStyle;curved=1;rounded=0;html=1;exitX=1;exitY=0.5;entryX=0;entryY=0.5;entryPerimeter=0;endArrow=none;endFill=0;jettySize=auto;orthogonalLoop=1;strokeWidth=4;fontSize=15;exitDx=0;exitDy=0;" parent="1" source="AVEdaVqTsH_PwXqT6mUa-4" target="9hBKPDzoitwpIBdzFDQ7-30" edge="1">
          <mxGeometry relative="1" as="geometry" />
        </mxCell>
        <mxCell id="AVEdaVqTsH_PwXqT6mUa-1" value="" style="edgeStyle=orthogonalEdgeStyle;rounded=0;orthogonalLoop=1;jettySize=auto;html=1;exitX=0.5;exitY=1;exitDx=0;exitDy=0;entryX=0.5;entryY=0;entryDx=0;entryDy=0;entryPerimeter=0;" edge="1" parent="1" source="9hBKPDzoitwpIBdzFDQ7-28" target="9hBKPDzoitwpIBdzFDQ7-25">
          <mxGeometry relative="1" as="geometry" />
        </mxCell>
        <mxCell id="9hBKPDzoitwpIBdzFDQ7-25" value="&lt;div style=&quot;&quot;&gt;&lt;b style=&quot;background-color: initial;&quot;&gt;Feature Engineering&lt;/b&gt;&lt;/div&gt;" style="verticalLabelPosition=bottom;verticalAlign=top;html=1;strokeWidth=4;shape=mxgraph.flowchart.on-page_reference;plain-blue;gradientColor=none;fillColor=#B5E3Fe;strokeColor=#000000;align=left;" parent="1" vertex="1">
          <mxGeometry x="60" y="195" width="50" height="50" as="geometry" />
        </mxCell>
        <mxCell id="9hBKPDzoitwpIBdzFDQ7-26" value="" style="verticalLabelPosition=bottom;verticalAlign=top;html=1;strokeWidth=4;shape=mxgraph.flowchart.on-page_reference;plain-blue;gradientColor=none;strokeColor=#000000;" parent="1" vertex="1">
          <mxGeometry x="360" y="300" width="30" height="30" as="geometry" />
        </mxCell>
        <mxCell id="9hBKPDzoitwpIBdzFDQ7-27" value="" style="edgeStyle=orthogonalEdgeStyle;rounded=0;html=1;jettySize=auto;orthogonalLoop=1;strokeWidth=4;endArrow=none;endFill=0;entryX=0.5;entryY=1;entryDx=0;entryDy=0;exitX=0.5;exitY=0;exitDx=0;exitDy=0;exitPerimeter=0;" parent="1" target="9hBKPDzoitwpIBdzFDQ7-28" edge="1" source="9hBKPDzoitwpIBdzFDQ7-25">
          <mxGeometry x="204.5" y="180" as="geometry">
            <mxPoint x="240" y="179.74" as="sourcePoint" />
            <mxPoint x="160" y="179.74" as="targetPoint" />
          </mxGeometry>
        </mxCell>
        <mxCell id="9hBKPDzoitwpIBdzFDQ7-28" value="&lt;font style=&quot;font-size: 18px;&quot;&gt;X&lt;sup&gt;&amp;lt;n&amp;gt;&lt;/sup&gt;&lt;/font&gt;" style="text;html=1;strokeColor=none;fillColor=none;align=center;verticalAlign=middle;whiteSpace=wrap;overflow=hidden;fontSize=14;fontStyle=1;fontFamily=Courier New;" parent="1" vertex="1">
          <mxGeometry x="60" y="70" width="50" height="55" as="geometry" />
        </mxCell>
        <mxCell id="9hBKPDzoitwpIBdzFDQ7-30" value="&lt;b&gt;ELO Model&lt;/b&gt;" style="verticalLabelPosition=bottom;verticalAlign=top;html=1;strokeWidth=4;shape=mxgraph.flowchart.on-page_reference;plain-purple;gradientColor=none;strokeColor=#000000;" parent="1" vertex="1">
          <mxGeometry x="240" y="375" width="50" height="50" as="geometry" />
        </mxCell>
        <mxCell id="9hBKPDzoitwpIBdzFDQ7-33" style="edgeStyle=orthogonalEdgeStyle;curved=1;rounded=0;html=1;exitX=1;exitY=0.5;exitPerimeter=0;entryX=0;entryY=0.5;entryPerimeter=0;endArrow=none;endFill=0;jettySize=auto;orthogonalLoop=1;strokeWidth=4;fontSize=15;exitDx=0;exitDy=0;" parent="1" source="9hBKPDzoitwpIBdzFDQ7-30" target="9hBKPDzoitwpIBdzFDQ7-26" edge="1">
          <mxGeometry relative="1" as="geometry">
            <mxPoint x="522.5" y="260" as="sourcePoint" />
          </mxGeometry>
        </mxCell>
        <mxCell id="AVEdaVqTsH_PwXqT6mUa-4" value="&lt;font style=&quot;font-size: 18px;&quot;&gt;X&lt;sup&gt;&amp;lt;m&amp;gt;&lt;/sup&gt;&lt;/font&gt;" style="text;html=1;strokeColor=none;fillColor=none;align=center;verticalAlign=middle;whiteSpace=wrap;overflow=hidden;fontSize=14;fontStyle=1;fontFamily=Courier New;" vertex="1" parent="1">
          <mxGeometry x="130" y="287.5" width="50" height="55" as="geometry" />
        </mxCell>
        <mxCell id="AVEdaVqTsH_PwXqT6mUa-5" value="" style="edgeStyle=orthogonalEdgeStyle;rounded=0;html=1;jettySize=auto;orthogonalLoop=1;strokeWidth=4;endArrow=none;endFill=0;entryX=0;entryY=0.5;entryDx=0;entryDy=0;exitX=0;exitY=0.5;exitDx=0;exitDy=0;entryPerimeter=0;" edge="1" parent="1" source="AVEdaVqTsH_PwXqT6mUa-4" target="9hBKPDzoitwpIBdzFDQ7-25">
          <mxGeometry x="204.5" y="180" as="geometry">
            <mxPoint x="380" y="207.5" as="sourcePoint" />
            <mxPoint x="300" y="207.5" as="targetPoint" />
            <Array as="points">
              <mxPoint x="40" y="315" />
              <mxPoint x="40" y="220" />
            </Array>
          </mxGeometry>
        </mxCell>
        <mxCell id="AVEdaVqTsH_PwXqT6mUa-6" value="" style="edgeStyle=orthogonalEdgeStyle;rounded=0;orthogonalLoop=1;jettySize=auto;html=1;exitX=0;exitY=0.5;exitDx=0;exitDy=0;entryX=0;entryY=0.5;entryDx=0;entryDy=0;exitPerimeter=0;" edge="1" parent="1" source="9hBKPDzoitwpIBdzFDQ7-25" target="AVEdaVqTsH_PwXqT6mUa-4">
          <mxGeometry relative="1" as="geometry">
            <mxPoint x="310" y="220" as="sourcePoint" />
            <mxPoint x="390" y="220" as="targetPoint" />
            <Array as="points">
              <mxPoint x="40" y="220" />
              <mxPoint x="40" y="315" />
            </Array>
          </mxGeometry>
        </mxCell>
        <mxCell id="AVEdaVqTsH_PwXqT6mUa-7" value="" style="shape=umlDestroy;whiteSpace=wrap;html=1;strokeWidth=3;targetShapes=umlLifeline;rotation=45;" vertex="1" parent="1">
          <mxGeometry x="370" y="310" width="10" height="10" as="geometry" />
        </mxCell>
        <mxCell id="AVEdaVqTsH_PwXqT6mUa-8" style="edgeStyle=orthogonalEdgeStyle;curved=1;rounded=0;html=1;exitX=1;exitY=0.5;entryX=0;entryY=0.5;entryPerimeter=0;endArrow=none;endFill=0;jettySize=auto;orthogonalLoop=1;strokeWidth=4;fontSize=15;exitDx=0;exitDy=0;" edge="1" parent="1" target="AVEdaVqTsH_PwXqT6mUa-9" source="AVEdaVqTsH_PwXqT6mUa-4">
          <mxGeometry relative="1" as="geometry">
            <mxPoint x="402.25" y="-10" as="sourcePoint" />
          </mxGeometry>
        </mxCell>
        <mxCell id="AVEdaVqTsH_PwXqT6mUa-9" value="&lt;b&gt;Quality Model&lt;/b&gt;" style="verticalLabelPosition=bottom;verticalAlign=top;html=1;strokeWidth=4;shape=mxgraph.flowchart.on-page_reference;plain-purple;gradientColor=none;strokeColor=#000000;" vertex="1" parent="1">
          <mxGeometry x="240" y="200" width="50" height="50" as="geometry" />
        </mxCell>
        <mxCell id="AVEdaVqTsH_PwXqT6mUa-10" style="edgeStyle=orthogonalEdgeStyle;curved=1;rounded=0;html=1;exitX=1;exitY=0.5;exitPerimeter=0;entryX=0;entryY=0.5;entryPerimeter=0;endArrow=none;endFill=0;jettySize=auto;orthogonalLoop=1;strokeWidth=4;fontSize=15;exitDx=0;exitDy=0;entryDx=0;entryDy=0;" edge="1" parent="1" source="AVEdaVqTsH_PwXqT6mUa-9" target="9hBKPDzoitwpIBdzFDQ7-26">
          <mxGeometry relative="1" as="geometry">
            <mxPoint x="524.75" y="70" as="sourcePoint" />
            <mxPoint x="567.25" y="-10" as="targetPoint" />
          </mxGeometry>
        </mxCell>
        <mxCell id="AVEdaVqTsH_PwXqT6mUa-11" value="&lt;font style=&quot;font-size: 18px;&quot;&gt;X&lt;sup&gt;&amp;lt;s&amp;gt;&lt;/sup&gt;&lt;/font&gt;" style="text;html=1;strokeColor=none;fillColor=none;align=center;verticalAlign=middle;whiteSpace=wrap;overflow=hidden;fontSize=14;fontStyle=1;fontFamily=Courier New;" vertex="1" parent="1">
          <mxGeometry x="420" y="287.5" width="50" height="55" as="geometry" />
        </mxCell>
        <mxCell id="AVEdaVqTsH_PwXqT6mUa-12" value="" style="edgeStyle=orthogonalEdgeStyle;rounded=0;orthogonalLoop=1;jettySize=auto;html=1;exitX=1;exitY=0.5;exitDx=0;exitDy=0;entryX=0;entryY=0.5;entryDx=0;entryDy=0;exitPerimeter=0;" edge="1" parent="1" source="9hBKPDzoitwpIBdzFDQ7-26" target="AVEdaVqTsH_PwXqT6mUa-11">
          <mxGeometry relative="1" as="geometry">
            <mxPoint x="610" y="185" as="sourcePoint" />
            <mxPoint x="670" y="185" as="targetPoint" />
          </mxGeometry>
        </mxCell>
        <mxCell id="AVEdaVqTsH_PwXqT6mUa-14" value="" style="edgeStyle=orthogonalEdgeStyle;rounded=0;html=1;jettySize=auto;orthogonalLoop=1;strokeWidth=4;endArrow=none;endFill=0;entryX=1;entryY=0.5;entryDx=0;entryDy=0;exitX=0;exitY=0.5;exitDx=0;exitDy=0;entryPerimeter=0;" edge="1" parent="1" source="AVEdaVqTsH_PwXqT6mUa-11" target="9hBKPDzoitwpIBdzFDQ7-26">
          <mxGeometry x="204.5" y="180" as="geometry">
            <mxPoint x="680" y="205" as="sourcePoint" />
            <mxPoint x="610" y="205.26" as="targetPoint" />
            <Array as="points" />
          </mxGeometry>
        </mxCell>
        <mxCell id="AVEdaVqTsH_PwXqT6mUa-15" style="edgeStyle=orthogonalEdgeStyle;curved=1;rounded=0;html=1;exitX=1;exitY=0.5;endArrow=none;endFill=0;jettySize=auto;orthogonalLoop=1;strokeWidth=4;fontSize=15;exitDx=0;exitDy=0;" edge="1" parent="1" source="AVEdaVqTsH_PwXqT6mUa-11">
          <mxGeometry relative="1" as="geometry">
            <mxPoint x="480" y="310" as="sourcePoint" />
            <mxPoint x="508" y="410" as="targetPoint" />
          </mxGeometry>
        </mxCell>
        <mxCell id="AVEdaVqTsH_PwXqT6mUa-17" style="edgeStyle=orthogonalEdgeStyle;curved=1;rounded=0;html=1;exitX=1;exitY=0.5;endArrow=none;endFill=0;jettySize=auto;orthogonalLoop=1;strokeWidth=4;fontSize=15;exitDx=0;exitDy=0;entryX=0;entryY=0.5;entryDx=0;entryDy=0;entryPerimeter=0;" edge="1" parent="1" source="AVEdaVqTsH_PwXqT6mUa-20" target="AVEdaVqTsH_PwXqT6mUa-71">
          <mxGeometry relative="1" as="geometry">
            <mxPoint x="590" y="475" as="sourcePoint" />
            <mxPoint x="670" y="620" as="targetPoint" />
          </mxGeometry>
        </mxCell>
        <mxCell id="AVEdaVqTsH_PwXqT6mUa-20" value="" style="rounded=1;whiteSpace=wrap;html=1;strokeWidth=4;fillColor=#E1D5E7;" vertex="1" parent="1">
          <mxGeometry x="440" y="410" width="300" height="170" as="geometry" />
        </mxCell>
        <mxCell id="AVEdaVqTsH_PwXqT6mUa-21" value="" style="edgeStyle=orthogonalEdgeStyle;rounded=0;html=1;jettySize=auto;orthogonalLoop=1;strokeWidth=4;endArrow=none;endFill=0;exitX=0;exitY=0.5;exitDx=0;exitDy=0;entryX=1;entryY=0.5;entryDx=0;entryDy=0;" edge="1" parent="1" source="AVEdaVqTsH_PwXqT6mUa-20" target="AVEdaVqTsH_PwXqT6mUa-23">
          <mxGeometry x="204.5" y="180" as="geometry">
            <mxPoint x="480" y="474.63" as="sourcePoint" />
            <mxPoint x="425" y="475" as="targetPoint" />
            <Array as="points" />
          </mxGeometry>
        </mxCell>
        <mxCell id="AVEdaVqTsH_PwXqT6mUa-23" value="&lt;span style=&quot;font-size: 20px;&quot;&gt;h&lt;sub&gt;t-1&lt;/sub&gt;&lt;/span&gt;" style="text;html=1;strokeColor=none;fillColor=none;align=center;verticalAlign=middle;whiteSpace=wrap;overflow=hidden;fontSize=14;fontStyle=1;fontFamily=Courier New;" vertex="1" parent="1">
          <mxGeometry x="350" y="467.5" width="50" height="55" as="geometry" />
        </mxCell>
        <mxCell id="AVEdaVqTsH_PwXqT6mUa-24" value="" style="edgeStyle=orthogonalEdgeStyle;rounded=0;html=1;jettySize=auto;orthogonalLoop=1;strokeWidth=4;endArrow=none;endFill=0;exitX=0;exitY=0.5;exitDx=0;exitDy=0;entryX=1;entryY=0.5;entryDx=0;entryDy=0;" edge="1" parent="1" target="AVEdaVqTsH_PwXqT6mUa-20" source="AVEdaVqTsH_PwXqT6mUa-26">
          <mxGeometry x="204.5" y="180" as="geometry">
            <mxPoint x="610" y="467.5" as="sourcePoint" />
            <mxPoint x="565" y="467.5" as="targetPoint" />
            <Array as="points" />
          </mxGeometry>
        </mxCell>
        <mxCell id="AVEdaVqTsH_PwXqT6mUa-25" value="" style="edgeStyle=orthogonalEdgeStyle;rounded=0;orthogonalLoop=1;jettySize=auto;html=1;exitX=1;exitY=0.5;exitDx=0;exitDy=0;" edge="1" parent="1" source="AVEdaVqTsH_PwXqT6mUa-20">
          <mxGeometry relative="1" as="geometry">
            <mxPoint x="560" y="467.13" as="sourcePoint" />
            <mxPoint x="790" y="495" as="targetPoint" />
            <Array as="points" />
          </mxGeometry>
        </mxCell>
        <mxCell id="AVEdaVqTsH_PwXqT6mUa-26" value="&lt;span style=&quot;font-size: 20px;&quot;&gt;h&lt;sub&gt;t&lt;br&gt;&lt;/sub&gt;&lt;/span&gt;" style="text;html=1;strokeColor=none;fillColor=none;align=center;verticalAlign=middle;whiteSpace=wrap;overflow=hidden;fontSize=14;fontStyle=1;fontFamily=Courier New;" vertex="1" parent="1">
          <mxGeometry x="790" y="467.5" width="50" height="55" as="geometry" />
        </mxCell>
        <mxCell id="AVEdaVqTsH_PwXqT6mUa-27" value="&lt;span style=&quot;font-size: 18px;&quot;&gt;Pred&lt;/span&gt;" style="text;html=1;strokeColor=none;fillColor=none;align=center;verticalAlign=middle;whiteSpace=wrap;overflow=hidden;fontSize=14;fontStyle=1;fontFamily=Courier New;" vertex="1" parent="1">
          <mxGeometry x="880" y="390" width="50" height="55" as="geometry" />
        </mxCell>
        <mxCell id="AVEdaVqTsH_PwXqT6mUa-31" value="" style="edgeStyle=orthogonalEdgeStyle;rounded=0;orthogonalLoop=1;jettySize=auto;html=1;exitX=0.25;exitY=0;exitDx=0;exitDy=0;entryX=0.5;entryY=0;entryDx=0;entryDy=0;strokeWidth=1;" edge="1" parent="1" source="AVEdaVqTsH_PwXqT6mUa-20" target="AVEdaVqTsH_PwXqT6mUa-35">
          <mxGeometry relative="1" as="geometry">
            <mxPoint x="505.25" y="425" as="sourcePoint" />
            <mxPoint x="525" y="460" as="targetPoint" />
            <Array as="points">
              <mxPoint x="508" y="420" />
              <mxPoint x="508" y="420" />
            </Array>
          </mxGeometry>
        </mxCell>
        <mxCell id="AVEdaVqTsH_PwXqT6mUa-35" value="σ" style="rounded=1;whiteSpace=wrap;html=1;strokeWidth=2;fillColor=#0050ef;strokeColor=#001DBC;fontColor=#ffffff;opacity=50;" vertex="1" parent="1">
          <mxGeometry x="488" y="485" width="40" height="20" as="geometry" />
        </mxCell>
        <mxCell id="AVEdaVqTsH_PwXqT6mUa-37" value="" style="edgeStyle=orthogonalEdgeStyle;rounded=0;orthogonalLoop=1;jettySize=auto;html=1;exitX=0;exitY=0.5;exitDx=0;exitDy=0;entryX=0;entryY=0.5;entryDx=0;entryDy=0;strokeWidth=1;" edge="1" parent="1" source="AVEdaVqTsH_PwXqT6mUa-20" target="AVEdaVqTsH_PwXqT6mUa-35">
          <mxGeometry relative="1" as="geometry">
            <mxPoint x="518" y="420" as="sourcePoint" />
            <mxPoint x="518" y="495" as="targetPoint" />
            <Array as="points" />
          </mxGeometry>
        </mxCell>
        <mxCell id="AVEdaVqTsH_PwXqT6mUa-38" value="" style="endArrow=classic;html=1;rounded=0;strokeWidth=1;exitX=0.5;exitY=1;exitDx=0;exitDy=0;entryX=0.5;entryY=0;entryDx=0;entryDy=0;entryPerimeter=0;" edge="1" parent="1" source="AVEdaVqTsH_PwXqT6mUa-35" target="AVEdaVqTsH_PwXqT6mUa-39">
          <mxGeometry width="50" height="50" relative="1" as="geometry">
            <mxPoint x="530" y="535" as="sourcePoint" />
            <mxPoint x="580" y="480" as="targetPoint" />
          </mxGeometry>
        </mxCell>
        <mxCell id="AVEdaVqTsH_PwXqT6mUa-39" value="" style="verticalLabelPosition=bottom;verticalAlign=top;html=1;strokeWidth=2;shape=mxgraph.flowchart.on-page_reference;plain-blue;gradientColor=none;strokeColor=#000000;" vertex="1" parent="1">
          <mxGeometry x="500.5" y="533" width="15" height="15" as="geometry" />
        </mxCell>
        <mxCell id="AVEdaVqTsH_PwXqT6mUa-42" value="&lt;span style=&quot;font-size: 15px;&quot;&gt;R&lt;sub&gt;t&lt;/sub&gt;&lt;/span&gt;" style="text;html=1;strokeColor=none;fillColor=none;align=center;verticalAlign=middle;whiteSpace=wrap;overflow=hidden;fontSize=14;fontStyle=1;fontFamily=Courier New;" vertex="1" parent="1">
          <mxGeometry x="470.5" y="459" width="30" height="33" as="geometry" />
        </mxCell>
        <mxCell id="AVEdaVqTsH_PwXqT6mUa-43" value="σ" style="rounded=1;whiteSpace=wrap;html=1;strokeWidth=2;fillColor=#0050ef;strokeColor=#001DBC;fontColor=#ffffff;opacity=50;" vertex="1" parent="1">
          <mxGeometry x="563.75" y="465" width="40" height="20" as="geometry" />
        </mxCell>
        <mxCell id="AVEdaVqTsH_PwXqT6mUa-44" value="&lt;span style=&quot;font-size: 15px;&quot;&gt;Z&lt;sub&gt;t&lt;/sub&gt;&lt;/span&gt;" style="text;html=1;strokeColor=none;fillColor=none;align=center;verticalAlign=middle;whiteSpace=wrap;overflow=hidden;fontSize=14;fontStyle=1;fontFamily=Courier New;" vertex="1" parent="1">
          <mxGeometry x="536" y="450" width="30" height="33" as="geometry" />
        </mxCell>
        <mxCell id="AVEdaVqTsH_PwXqT6mUa-45" value="" style="edgeStyle=orthogonalEdgeStyle;rounded=0;orthogonalLoop=1;jettySize=auto;html=1;entryX=0.5;entryY=0;entryDx=0;entryDy=0;strokeWidth=1;" edge="1" parent="1" target="AVEdaVqTsH_PwXqT6mUa-43">
          <mxGeometry relative="1" as="geometry">
            <mxPoint x="508" y="450" as="sourcePoint" />
            <mxPoint x="518" y="495" as="targetPoint" />
            <Array as="points">
              <mxPoint x="508" y="450" />
              <mxPoint x="584" y="450" />
            </Array>
          </mxGeometry>
        </mxCell>
        <mxCell id="AVEdaVqTsH_PwXqT6mUa-46" value="" style="edgeStyle=orthogonalEdgeStyle;rounded=0;orthogonalLoop=1;jettySize=auto;html=1;strokeWidth=1;entryX=0;entryY=0.5;entryDx=0;entryDy=0;entryPerimeter=0;" edge="1" parent="1" target="AVEdaVqTsH_PwXqT6mUa-39">
          <mxGeometry relative="1" as="geometry">
            <mxPoint x="460" y="495" as="sourcePoint" />
            <mxPoint x="500" y="540" as="targetPoint" />
            <Array as="points">
              <mxPoint x="460" y="540" />
              <mxPoint x="501" y="540" />
            </Array>
          </mxGeometry>
        </mxCell>
        <mxCell id="AVEdaVqTsH_PwXqT6mUa-47" value="σ" style="rounded=1;whiteSpace=wrap;html=1;strokeWidth=2;fillColor=#0050ef;strokeColor=#001DBC;fontColor=#ffffff;opacity=50;" vertex="1" parent="1">
          <mxGeometry x="630" y="485" width="40" height="20" as="geometry" />
        </mxCell>
        <mxCell id="AVEdaVqTsH_PwXqT6mUa-48" value="&lt;span style=&quot;font-size: 15px;&quot;&gt;tanh&lt;/span&gt;" style="text;html=1;strokeColor=none;fillColor=none;align=center;verticalAlign=middle;whiteSpace=wrap;overflow=hidden;fontSize=14;fontStyle=1;fontFamily=Courier New;" vertex="1" parent="1">
          <mxGeometry x="657" y="459" width="40" height="33" as="geometry" />
        </mxCell>
        <mxCell id="AVEdaVqTsH_PwXqT6mUa-49" value="" style="edgeStyle=orthogonalEdgeStyle;rounded=0;orthogonalLoop=1;jettySize=auto;html=1;entryX=0.5;entryY=0;entryDx=0;entryDy=0;strokeWidth=1;" edge="1" parent="1" target="AVEdaVqTsH_PwXqT6mUa-47">
          <mxGeometry relative="1" as="geometry">
            <mxPoint x="570" y="450" as="sourcePoint" />
            <mxPoint x="584" y="495" as="targetPoint" />
            <Array as="points">
              <mxPoint x="650" y="450" />
              <mxPoint x="650" y="485" />
            </Array>
          </mxGeometry>
        </mxCell>
        <mxCell id="AVEdaVqTsH_PwXqT6mUa-50" value="" style="verticalLabelPosition=bottom;verticalAlign=top;html=1;strokeWidth=2;shape=mxgraph.flowchart.on-page_reference;plain-blue;gradientColor=none;strokeColor=#000000;" vertex="1" parent="1">
          <mxGeometry x="576.25" y="548" width="15" height="15" as="geometry" />
        </mxCell>
        <mxCell id="AVEdaVqTsH_PwXqT6mUa-51" value="" style="endArrow=classic;html=1;rounded=0;strokeWidth=1;exitX=0.5;exitY=1;exitDx=0;exitDy=0;entryX=0.5;entryY=0;entryDx=0;entryDy=0;entryPerimeter=0;" edge="1" parent="1" source="AVEdaVqTsH_PwXqT6mUa-43" target="AVEdaVqTsH_PwXqT6mUa-50">
          <mxGeometry width="50" height="50" relative="1" as="geometry">
            <mxPoint x="518" y="515" as="sourcePoint" />
            <mxPoint x="518" y="543" as="targetPoint" />
            <Array as="points" />
          </mxGeometry>
        </mxCell>
        <mxCell id="AVEdaVqTsH_PwXqT6mUa-52" value="" style="verticalLabelPosition=bottom;verticalAlign=top;html=1;strokeWidth=2;shape=mxgraph.flowchart.on-page_reference;plain-blue;gradientColor=none;strokeColor=#000000;" vertex="1" parent="1">
          <mxGeometry x="642.5" y="522.5" width="15" height="15" as="geometry" />
        </mxCell>
        <mxCell id="AVEdaVqTsH_PwXqT6mUa-53" value="" style="endArrow=classic;html=1;rounded=0;strokeWidth=1;exitX=0.5;exitY=1;exitDx=0;exitDy=0;entryX=0.5;entryY=0;entryDx=0;entryDy=0;entryPerimeter=0;" edge="1" parent="1" source="AVEdaVqTsH_PwXqT6mUa-47" target="AVEdaVqTsH_PwXqT6mUa-52">
          <mxGeometry width="50" height="50" relative="1" as="geometry">
            <mxPoint x="584" y="515" as="sourcePoint" />
            <mxPoint x="584" y="543" as="targetPoint" />
            <Array as="points" />
          </mxGeometry>
        </mxCell>
        <mxCell id="AVEdaVqTsH_PwXqT6mUa-54" value="" style="verticalLabelPosition=bottom;verticalAlign=top;html=1;strokeWidth=2;shape=mxgraph.flowchart.on-page_reference;plain-blue;gradientColor=none;strokeColor=#000000;" vertex="1" parent="1">
          <mxGeometry x="700" y="487.5" width="15" height="15" as="geometry" />
        </mxCell>
        <mxCell id="AVEdaVqTsH_PwXqT6mUa-55" value="" style="endArrow=classic;html=1;rounded=0;strokeWidth=1;entryX=0;entryY=0.5;entryDx=0;entryDy=0;entryPerimeter=0;" edge="1" parent="1" target="AVEdaVqTsH_PwXqT6mUa-64">
          <mxGeometry width="50" height="50" relative="1" as="geometry">
            <mxPoint x="584" y="530" as="sourcePoint" />
            <mxPoint x="594" y="558" as="targetPoint" />
            <Array as="points" />
          </mxGeometry>
        </mxCell>
        <mxCell id="AVEdaVqTsH_PwXqT6mUa-56" value="" style="endArrow=classic;html=1;rounded=0;strokeWidth=1;entryX=0.5;entryY=1;entryDx=0;entryDy=0;entryPerimeter=0;exitX=1;exitY=0.5;exitDx=0;exitDy=0;exitPerimeter=0;" edge="1" parent="1" source="AVEdaVqTsH_PwXqT6mUa-50" target="AVEdaVqTsH_PwXqT6mUa-54">
          <mxGeometry width="50" height="50" relative="1" as="geometry">
            <mxPoint x="594" y="540" as="sourcePoint" />
            <mxPoint x="653" y="540" as="targetPoint" />
            <Array as="points">
              <mxPoint x="708" y="556" />
            </Array>
          </mxGeometry>
        </mxCell>
        <mxCell id="AVEdaVqTsH_PwXqT6mUa-57" value="" style="line;strokeWidth=1;html=1;perimeter=backbonePerimeter;points=[];outlineConnect=0;" vertex="1" parent="1">
          <mxGeometry x="657" y="525" width="51" height="10" as="geometry" />
        </mxCell>
        <mxCell id="AVEdaVqTsH_PwXqT6mUa-58" value="" style="edgeStyle=orthogonalEdgeStyle;rounded=0;orthogonalLoop=1;jettySize=auto;html=1;strokeWidth=1;entryX=0;entryY=0.5;entryDx=0;entryDy=0;exitX=1;exitY=0.5;exitDx=0;exitDy=0;exitPerimeter=0;" edge="1" parent="1" source="AVEdaVqTsH_PwXqT6mUa-39" target="AVEdaVqTsH_PwXqT6mUa-47">
          <mxGeometry relative="1" as="geometry">
            <mxPoint x="470" y="505" as="sourcePoint" />
            <mxPoint x="511" y="551" as="targetPoint" />
            <Array as="points">
              <mxPoint x="550" y="541" />
              <mxPoint x="550" y="495" />
            </Array>
          </mxGeometry>
        </mxCell>
        <mxCell id="AVEdaVqTsH_PwXqT6mUa-59" value="" style="shape=umlDestroy;whiteSpace=wrap;html=1;strokeWidth=1;targetShapes=umlLifeline;rotation=45;" vertex="1" parent="1">
          <mxGeometry x="704.5" y="492" width="6" height="6" as="geometry" />
        </mxCell>
        <mxCell id="AVEdaVqTsH_PwXqT6mUa-60" value="" style="endArrow=classic;html=1;rounded=0;entryX=1;entryY=0.5;entryDx=0;entryDy=0;exitX=1;exitY=0.5;exitDx=0;exitDy=0;exitPerimeter=0;" edge="1" parent="1" source="AVEdaVqTsH_PwXqT6mUa-54" target="AVEdaVqTsH_PwXqT6mUa-20">
          <mxGeometry width="50" height="50" relative="1" as="geometry">
            <mxPoint x="650" y="490" as="sourcePoint" />
            <mxPoint x="700" y="440" as="targetPoint" />
          </mxGeometry>
        </mxCell>
        <mxCell id="AVEdaVqTsH_PwXqT6mUa-61" value="" style="shape=waypoint;sketch=0;fillStyle=solid;size=6;pointerEvents=1;points=[];fillColor=none;resizable=0;rotatable=0;perimeter=centerPerimeter;snapToPoint=1;strokeWidth=0;" vertex="1" parent="1">
          <mxGeometry x="498" y="530.5" width="20" height="20" as="geometry" />
        </mxCell>
        <mxCell id="AVEdaVqTsH_PwXqT6mUa-62" value="" style="shape=waypoint;sketch=0;fillStyle=solid;size=6;pointerEvents=1;points=[];fillColor=none;resizable=0;rotatable=0;perimeter=centerPerimeter;snapToPoint=1;strokeWidth=0;" vertex="1" parent="1">
          <mxGeometry x="573.75" y="545.5" width="20" height="20" as="geometry" />
        </mxCell>
        <mxCell id="AVEdaVqTsH_PwXqT6mUa-64" value="" style="verticalLabelPosition=bottom;verticalAlign=top;html=1;strokeWidth=2;shape=mxgraph.flowchart.on-page_reference;plain-blue;gradientColor=none;strokeColor=#000000;" vertex="1" parent="1">
          <mxGeometry x="606" y="522.5" width="15" height="15" as="geometry" />
        </mxCell>
        <mxCell id="AVEdaVqTsH_PwXqT6mUa-65" value="" style="endArrow=classic;html=1;rounded=0;strokeWidth=1;entryX=0;entryY=0.5;entryDx=0;entryDy=0;entryPerimeter=0;exitX=1;exitY=0.5;exitDx=0;exitDy=0;exitPerimeter=0;" edge="1" parent="1" source="AVEdaVqTsH_PwXqT6mUa-64" target="AVEdaVqTsH_PwXqT6mUa-52">
          <mxGeometry width="50" height="50" relative="1" as="geometry">
            <mxPoint x="594" y="540" as="sourcePoint" />
            <mxPoint x="614" y="551" as="targetPoint" />
            <Array as="points" />
          </mxGeometry>
        </mxCell>
        <mxCell id="AVEdaVqTsH_PwXqT6mUa-66" value="" style="shape=waypoint;sketch=0;fillStyle=solid;size=6;pointerEvents=1;points=[];fillColor=none;resizable=0;rotatable=0;perimeter=centerPerimeter;snapToPoint=1;strokeWidth=0;" vertex="1" parent="1">
          <mxGeometry x="640" y="520" width="20" height="20" as="geometry" />
        </mxCell>
        <mxCell id="AVEdaVqTsH_PwXqT6mUa-67" value="&lt;b&gt;&lt;font style=&quot;font-size: 14px;&quot;&gt;Lasso Regression&lt;/font&gt;&lt;/b&gt;" style="rounded=1;whiteSpace=wrap;html=1;strokeWidth=4;fillColor=#E1D5E7;" vertex="1" parent="1">
          <mxGeometry x="590" y="185" width="150" height="80" as="geometry" />
        </mxCell>
        <mxCell id="AVEdaVqTsH_PwXqT6mUa-68" style="edgeStyle=orthogonalEdgeStyle;curved=1;rounded=0;html=1;exitX=1;exitY=0.5;entryX=0;entryY=0.5;endArrow=none;endFill=0;jettySize=auto;orthogonalLoop=1;strokeWidth=4;fontSize=15;exitDx=0;exitDy=0;entryDx=0;entryDy=0;" edge="1" parent="1" source="AVEdaVqTsH_PwXqT6mUa-11" target="AVEdaVqTsH_PwXqT6mUa-67">
          <mxGeometry relative="1" as="geometry">
            <mxPoint x="480" y="325" as="sourcePoint" />
            <mxPoint x="595" y="370" as="targetPoint" />
          </mxGeometry>
        </mxCell>
        <mxCell id="AVEdaVqTsH_PwXqT6mUa-69" value="&lt;span style=&quot;font-size: 18px;&quot;&gt;Pred&lt;/span&gt;" style="text;html=1;strokeColor=none;fillColor=none;align=center;verticalAlign=middle;whiteSpace=wrap;overflow=hidden;fontSize=14;fontStyle=1;fontFamily=Courier New;" vertex="1" parent="1">
          <mxGeometry x="880" y="245" width="50" height="55" as="geometry" />
        </mxCell>
        <mxCell id="AVEdaVqTsH_PwXqT6mUa-70" style="edgeStyle=orthogonalEdgeStyle;curved=1;rounded=0;html=1;exitX=1;exitY=0.5;entryX=0;entryY=0.5;endArrow=none;endFill=0;jettySize=auto;orthogonalLoop=1;strokeWidth=4;fontSize=15;exitDx=0;exitDy=0;entryDx=0;entryDy=0;" edge="1" parent="1" source="AVEdaVqTsH_PwXqT6mUa-67" target="AVEdaVqTsH_PwXqT6mUa-69">
          <mxGeometry relative="1" as="geometry">
            <mxPoint x="480" y="325" as="sourcePoint" />
            <mxPoint x="600" y="235" as="targetPoint" />
          </mxGeometry>
        </mxCell>
        <mxCell id="AVEdaVqTsH_PwXqT6mUa-71" value="&lt;b&gt;FC Layer&lt;/b&gt;" style="verticalLabelPosition=bottom;verticalAlign=top;html=1;strokeWidth=4;shape=mxgraph.flowchart.on-page_reference;plain-purple;gradientColor=none;strokeColor=#000000;" vertex="1" parent="1">
          <mxGeometry x="790" y="392.5" width="50" height="50" as="geometry" />
        </mxCell>
        <mxCell id="AVEdaVqTsH_PwXqT6mUa-72" style="edgeStyle=orthogonalEdgeStyle;curved=1;rounded=0;html=1;exitX=1;exitY=0.5;endArrow=none;endFill=0;jettySize=auto;orthogonalLoop=1;strokeWidth=4;fontSize=15;exitDx=0;exitDy=0;entryX=0;entryY=0.5;entryDx=0;entryDy=0;exitPerimeter=0;" edge="1" parent="1" source="AVEdaVqTsH_PwXqT6mUa-71" target="AVEdaVqTsH_PwXqT6mUa-27">
          <mxGeometry relative="1" as="geometry">
            <mxPoint x="750" y="505" as="sourcePoint" />
            <mxPoint x="800" y="428" as="targetPoint" />
          </mxGeometry>
        </mxCell>
        <mxCell id="AVEdaVqTsH_PwXqT6mUa-73" value="" style="verticalLabelPosition=bottom;verticalAlign=top;html=1;strokeWidth=4;shape=mxgraph.flowchart.on-page_reference;plain-blue;gradientColor=none;strokeColor=#000000;" vertex="1" parent="1">
          <mxGeometry x="960" y="330" width="30" height="30" as="geometry" />
        </mxCell>
        <mxCell id="AVEdaVqTsH_PwXqT6mUa-75" value="" style="shape=umlDestroy;whiteSpace=wrap;html=1;strokeWidth=3;targetShapes=umlLifeline;rotation=45;" vertex="1" parent="1">
          <mxGeometry x="970" y="340" width="10" height="10" as="geometry" />
        </mxCell>
        <mxCell id="AVEdaVqTsH_PwXqT6mUa-78" style="edgeStyle=orthogonalEdgeStyle;curved=1;rounded=0;html=1;exitX=1;exitY=0.5;endArrow=none;endFill=0;jettySize=auto;orthogonalLoop=1;strokeWidth=4;fontSize=15;exitDx=0;exitDy=0;entryX=0.5;entryY=1;entryDx=0;entryDy=0;entryPerimeter=0;" edge="1" parent="1" source="AVEdaVqTsH_PwXqT6mUa-27" target="AVEdaVqTsH_PwXqT6mUa-73">
          <mxGeometry relative="1" as="geometry">
            <mxPoint x="750" y="505" as="sourcePoint" />
            <mxPoint x="800" y="428" as="targetPoint" />
          </mxGeometry>
        </mxCell>
        <mxCell id="AVEdaVqTsH_PwXqT6mUa-79" style="edgeStyle=orthogonalEdgeStyle;curved=1;rounded=0;html=1;exitX=0.5;exitY=0;endArrow=none;endFill=0;jettySize=auto;orthogonalLoop=1;strokeWidth=4;fontSize=15;exitDx=0;exitDy=0;entryX=1;entryY=0.5;entryDx=0;entryDy=0;exitPerimeter=0;" edge="1" parent="1" source="AVEdaVqTsH_PwXqT6mUa-73" target="AVEdaVqTsH_PwXqT6mUa-69">
          <mxGeometry relative="1" as="geometry">
            <mxPoint x="915" y="400" as="sourcePoint" />
            <mxPoint x="915" y="370" as="targetPoint" />
          </mxGeometry>
        </mxCell>
        <mxCell id="AVEdaVqTsH_PwXqT6mUa-80" value="&lt;span style=&quot;font-size: 18px;&quot;&gt;Performance&lt;/span&gt;" style="text;html=1;strokeColor=none;fillColor=none;align=center;verticalAlign=middle;whiteSpace=wrap;overflow=hidden;fontSize=14;fontStyle=1;fontFamily=Courier New;" vertex="1" parent="1">
          <mxGeometry x="1030" y="317.5" width="130" height="55" as="geometry" />
        </mxCell>
        <mxCell id="AVEdaVqTsH_PwXqT6mUa-81" value="" style="edgeStyle=orthogonalEdgeStyle;rounded=0;orthogonalLoop=1;jettySize=auto;html=1;exitX=1;exitY=0.5;exitDx=0;exitDy=0;entryX=0;entryY=0.5;entryDx=0;entryDy=0;exitPerimeter=0;" edge="1" parent="1" source="AVEdaVqTsH_PwXqT6mUa-73" target="AVEdaVqTsH_PwXqT6mUa-80">
          <mxGeometry relative="1" as="geometry">
            <mxPoint x="990" y="375" as="sourcePoint" />
            <mxPoint x="1040" y="375" as="targetPoint" />
            <Array as="points" />
          </mxGeometry>
        </mxCell>
        <mxCell id="AVEdaVqTsH_PwXqT6mUa-82" style="edgeStyle=orthogonalEdgeStyle;curved=1;rounded=0;html=1;exitX=1;exitY=0.5;endArrow=none;endFill=0;jettySize=auto;orthogonalLoop=1;strokeWidth=4;fontSize=15;exitDx=0;exitDy=0;entryX=0;entryY=0.5;entryDx=0;entryDy=0;exitPerimeter=0;" edge="1" parent="1" source="AVEdaVqTsH_PwXqT6mUa-73" target="AVEdaVqTsH_PwXqT6mUa-80">
          <mxGeometry relative="1" as="geometry">
            <mxPoint x="940" y="428" as="sourcePoint" />
            <mxPoint x="985" y="370" as="targetPoint" />
          </mxGeometry>
        </mxCell>
        <mxCell id="AVEdaVqTsH_PwXqT6mUa-83" value="&lt;font style=&quot;font-size: 20px;&quot;&gt;GRU Model&lt;/font&gt;" style="text;html=1;strokeColor=none;fillColor=none;align=center;verticalAlign=middle;whiteSpace=wrap;overflow=hidden;fontSize=14;fontStyle=1;fontFamily=Courier New;" vertex="1" parent="1">
          <mxGeometry x="515.5" y="404" width="146.25" height="55" as="geometry" />
        </mxCell>
        <mxCell id="AVEdaVqTsH_PwXqT6mUa-84" value="" style="shape=sumEllipse;perimeter=ellipsePerimeter;whiteSpace=wrap;html=1;backgroundOutline=1;fillColor=#E1D5E7;strokeWidth=2;" vertex="1" parent="1">
          <mxGeometry x="790" y="392.5" width="50" height="50" as="geometry" />
        </mxCell>
      </root>
    </mxGraphModel>
  </diagram>
</mxfile>
